{
	"patcher" : 	{
		"fileversion" : 1,
		"appversion" : 		{
			"major" : 8,
			"minor" : 2,
			"revision" : 1,
			"architecture" : "x64",
			"modernui" : 1
		}
,
		"classnamespace" : "box",
		"rect" : [ 34.0, 77.0, 1213.0, 690.0 ],
		"bglocked" : 0,
		"openinpresentation" : 1,
		"default_fontsize" : 12.0,
		"default_fontface" : 0,
		"default_fontname" : "Arial",
		"gridonopen" : 1,
		"gridsize" : [ 15.0, 15.0 ],
		"gridsnaponopen" : 1,
		"objectsnaponopen" : 1,
		"statusbarvisible" : 2,
		"toolbarvisible" : 1,
		"lefttoolbarpinned" : 0,
		"toptoolbarpinned" : 0,
		"righttoolbarpinned" : 0,
		"bottomtoolbarpinned" : 0,
		"toolbars_unpinned_last_save" : 0,
		"tallnewobj" : 0,
		"boxanimatetime" : 200,
		"enablehscroll" : 1,
		"enablevscroll" : 1,
		"devicewidth" : 0.0,
		"description" : "",
		"digest" : "",
		"tags" : "",
		"style" : "",
		"subpatcher_template" : "",
		"assistshowspatchername" : 0,
		"boxes" : [ 			{
				"box" : 				{
					"id" : "obj-15",
					"maxclass" : "newobj",
					"numinlets" : 1,
					"numoutlets" : 2,
					"outlettype" : [ "bang", "float" ],
					"patching_rect" : [ 793.0, 222.0, 29.5, 22.0 ],
					"text" : "t b f"
				}

			}
, 			{
				"box" : 				{
					"fontface" : 1,
					"id" : "obj-57",
					"maxclass" : "comment",
					"numinlets" : 1,
					"numoutlets" : 0,
					"patching_rect" : [ 913.0, 150.0, 50.0, 20.0 ],
					"text" : "Value"
				}

			}
, 			{
				"box" : 				{
					"format" : 6,
					"id" : "obj-63",
					"maxclass" : "flonum",
					"numinlets" : 1,
					"numoutlets" : 2,
					"outlettype" : [ "", "bang" ],
					"parameter_enable" : 0,
					"patching_rect" : [ 913.0, 126.0, 50.0, 22.0 ]
				}

			}
, 			{
				"box" : 				{
					"id" : "obj-51",
					"maxclass" : "newobj",
					"numinlets" : 1,
					"numoutlets" : 2,
					"outlettype" : [ "float", "float" ],
					"patching_rect" : [ 913.0, 174.0, 29.5, 22.0 ],
					"text" : "t f f"
				}

			}
, 			{
				"box" : 				{
					"comment" : "",
					"id" : "obj-49",
					"index" : 0,
					"maxclass" : "inlet",
					"numinlets" : 0,
					"numoutlets" : 1,
					"outlettype" : [ "" ],
					"patching_rect" : [ 913.0, 29.0, 30.0, 30.0 ]
				}

			}
, 			{
				"box" : 				{
					"id" : "obj-43",
					"maxclass" : "newobj",
					"numinlets" : 2,
					"numoutlets" : 2,
					"outlettype" : [ "bang", "" ],
					"patching_rect" : [ 30.0, 203.0, 50.0, 22.0 ],
					"text" : "select 0"
				}

			}
, 			{
				"box" : 				{
					"id" : "obj-40",
					"maxclass" : "newobj",
					"numinlets" : 1,
					"numoutlets" : 2,
					"outlettype" : [ "int", "int" ],
					"patching_rect" : [ 30.0, 179.0, 29.5, 22.0 ],
					"text" : "t i i"
				}

			}
, 			{
				"box" : 				{
					"id" : "obj-39",
					"maxclass" : "message",
					"numinlets" : 2,
					"numoutlets" : 1,
					"outlettype" : [ "" ],
					"patching_rect" : [ 30.0, 227.0, 29.5, 22.0 ],
					"text" : "#3"
				}

			}
, 			{
				"box" : 				{
					"id" : "obj-37",
					"maxclass" : "message",
					"numinlets" : 2,
					"numoutlets" : 1,
					"outlettype" : [ "" ],
					"patching_rect" : [ 61.5, 325.0, 29.5, 22.0 ],
					"text" : "0"
				}

			}
, 			{
				"box" : 				{
					"id" : "obj-32",
					"maxclass" : "message",
					"numinlets" : 2,
					"numoutlets" : 1,
					"outlettype" : [ "" ],
					"patching_rect" : [ 30.0, 82.0, 29.5, 22.0 ],
					"text" : "0"
				}

			}
, 			{
				"box" : 				{
					"id" : "obj-34",
					"maxclass" : "newobj",
					"numinlets" : 1,
					"numoutlets" : 1,
					"outlettype" : [ "bang" ],
					"patching_rect" : [ 30.0, 58.0, 58.0, 22.0 ],
					"text" : "loadbang"
				}

			}
, 			{
				"box" : 				{
					"id" : "obj-35",
					"maxclass" : "newobj",
					"numinlets" : 0,
					"numoutlets" : 1,
					"outlettype" : [ "" ],
					"patching_rect" : [ 30.0, 34.0, 82.0, 22.0 ],
					"text" : "r GlobalReset"
				}

			}
, 			{
				"box" : 				{
					"fontface" : 1,
					"id" : "obj-30",
					"maxclass" : "comment",
					"numinlets" : 1,
					"numoutlets" : 0,
					"patching_rect" : [ 30.0, 157.0, 90.0, 20.0 ],
					"presentation" : 1,
					"presentation_rect" : [ 80.0, 20.0, 100.0, 20.0 ],
					"text" : "On/Off"
				}

			}
, 			{
				"box" : 				{
					"id" : "obj-28",
					"maxclass" : "toggle",
					"numinlets" : 1,
					"numoutlets" : 1,
					"outlettype" : [ "int" ],
					"parameter_enable" : 0,
					"patching_rect" : [ 30.0, 131.0, 24.0, 24.0 ],
					"presentation" : 1,
					"presentation_rect" : [ 20.0, 20.0, 20.0, 20.0 ]
				}

			}
, 			{
				"box" : 				{
					"id" : "obj-22",
					"maxclass" : "newobj",
					"numinlets" : 2,
					"numoutlets" : 1,
					"outlettype" : [ "" ],
					"patching_rect" : [ 61.5, 253.0, 32.0, 22.0 ],
					"text" : "gate"
				}

			}
, 			{
				"box" : 				{
					"id" : "obj-12",
					"maxclass" : "newobj",
					"numinlets" : 1,
					"numoutlets" : 1,
					"outlettype" : [ "bang" ],
					"patching_rect" : [ 793.0, 53.0, 58.0, 22.0 ],
					"text" : "loadbang"
				}

			}
, 			{
				"box" : 				{
					"id" : "obj-14",
					"maxclass" : "newobj",
					"numinlets" : 0,
					"numoutlets" : 1,
					"outlettype" : [ "" ],
					"patching_rect" : [ 793.0, 29.0, 82.0, 22.0 ],
					"text" : "r GlobalReset"
				}

			}
, 			{
				"box" : 				{
					"id" : "obj-8",
					"maxclass" : "newobj",
					"numinlets" : 1,
					"numoutlets" : 1,
					"outlettype" : [ "bang" ],
					"patching_rect" : [ 689.0, 53.0, 58.0, 22.0 ],
					"text" : "loadbang"
				}

			}
, 			{
				"box" : 				{
					"id" : "obj-10",
					"maxclass" : "newobj",
					"numinlets" : 0,
					"numoutlets" : 1,
					"outlettype" : [ "" ],
					"patching_rect" : [ 689.0, 29.0, 82.0, 22.0 ],
					"text" : "r GlobalReset"
				}

			}
, 			{
				"box" : 				{
					"id" : "obj-6",
					"maxclass" : "newobj",
					"numinlets" : 1,
					"numoutlets" : 1,
					"outlettype" : [ "bang" ],
					"patching_rect" : [ 582.0, 53.0, 58.0, 22.0 ],
					"text" : "loadbang"
				}

			}
, 			{
				"box" : 				{
					"id" : "obj-7",
					"maxclass" : "newobj",
					"numinlets" : 0,
					"numoutlets" : 1,
					"outlettype" : [ "" ],
					"patching_rect" : [ 582.0, 29.0, 82.0, 22.0 ],
					"text" : "r GlobalReset"
				}

			}
, 			{
				"box" : 				{
					"id" : "obj-4",
					"maxclass" : "newobj",
					"numinlets" : 1,
					"numoutlets" : 1,
					"outlettype" : [ "bang" ],
					"patching_rect" : [ 463.0, 53.0, 58.0, 22.0 ],
					"text" : "loadbang"
				}

			}
, 			{
				"box" : 				{
					"id" : "obj-5",
					"maxclass" : "newobj",
					"numinlets" : 0,
					"numoutlets" : 1,
					"outlettype" : [ "" ],
					"patching_rect" : [ 463.0, 29.0, 82.0, 22.0 ],
					"text" : "r GlobalReset"
				}

			}
, 			{
				"box" : 				{
					"comment" : "",
					"id" : "obj-2",
					"index" : 0,
					"maxclass" : "inlet",
					"numinlets" : 0,
					"numoutlets" : 1,
					"outlettype" : [ "" ],
					"patching_rect" : [ 114.0, 34.0, 30.0, 30.0 ]
				}

			}
, 			{
				"box" : 				{
					"format" : 6,
					"id" : "obj-64",
					"maxclass" : "flonum",
					"numinlets" : 1,
					"numoutlets" : 2,
					"outlettype" : [ "", "bang" ],
					"parameter_enable" : 0,
					"patching_rect" : [ 689.0, 126.0, 50.0, 22.0 ],
					"presentation" : 1,
					"presentation_rect" : [ 20.0, 140.0, 50.0, 22.0 ]
				}

			}
, 			{
				"box" : 				{
					"id" : "obj-62",
					"maxclass" : "message",
					"numinlets" : 2,
					"numoutlets" : 1,
					"outlettype" : [ "" ],
					"patching_rect" : [ 793.0, 77.0, 29.5, 22.0 ],
					"text" : "#5"
				}

			}
, 			{
				"box" : 				{
					"id" : "obj-61",
					"maxclass" : "message",
					"numinlets" : 2,
					"numoutlets" : 1,
					"outlettype" : [ "" ],
					"patching_rect" : [ 689.0, 77.0, 29.5, 22.0 ],
					"text" : "#4"
				}

			}
, 			{
				"box" : 				{
					"id" : "obj-60",
					"maxclass" : "message",
					"numinlets" : 2,
					"numoutlets" : 1,
					"outlettype" : [ "" ],
					"patching_rect" : [ 582.0, 77.0, 29.5, 22.0 ],
					"text" : "#3"
				}

			}
, 			{
				"box" : 				{
					"id" : "obj-59",
					"maxclass" : "message",
					"numinlets" : 2,
					"numoutlets" : 1,
					"outlettype" : [ "" ],
					"patching_rect" : [ 463.0, 77.0, 29.5, 22.0 ],
					"text" : "#2"
				}

			}
, 			{
				"box" : 				{
					"id" : "obj-58",
					"maxclass" : "message",
					"numinlets" : 2,
					"numoutlets" : 1,
					"outlettype" : [ "" ],
					"patching_rect" : [ 343.0, 77.0, 29.5, 22.0 ],
					"text" : "#1"
				}

			}
, 			{
				"box" : 				{
					"id" : "obj-56",
					"maxclass" : "newobj",
					"numinlets" : 1,
					"numoutlets" : 1,
					"outlettype" : [ "bang" ],
					"patching_rect" : [ 343.0, 53.0, 58.0, 22.0 ],
					"text" : "loadbang"
				}

			}
, 			{
				"box" : 				{
					"id" : "obj-55",
					"maxclass" : "newobj",
					"numinlets" : 0,
					"numoutlets" : 1,
					"outlettype" : [ "" ],
					"patching_rect" : [ 343.0, 29.0, 82.0, 22.0 ],
					"text" : "r GlobalReset"
				}

			}
, 			{
				"box" : 				{
					"id" : "obj-54",
					"maxclass" : "newobj",
					"numinlets" : 2,
					"numoutlets" : 1,
					"outlettype" : [ "float" ],
					"patching_rect" : [ 803.5, 198.0, 47.0, 22.0 ],
					"text" : "* 1000."
				}

			}
, 			{
				"box" : 				{
					"id" : "obj-53",
					"maxclass" : "newobj",
					"numinlets" : 1,
					"numoutlets" : 2,
					"outlettype" : [ "bang", "bang" ],
					"patching_rect" : [ 254.5, 373.0, 32.0, 22.0 ],
					"text" : "t b b"
				}

			}
, 			{
				"box" : 				{
					"id" : "obj-52",
					"maxclass" : "newobj",
					"numinlets" : 2,
					"numoutlets" : 1,
					"outlettype" : [ "bang" ],
					"patching_rect" : [ 254.5, 397.0, 37.0, 22.0 ],
					"text" : "delay"
				}

			}
, 			{
				"box" : 				{
					"id" : "obj-50",
					"maxclass" : "newobj",
					"numinlets" : 1,
					"numoutlets" : 2,
					"outlettype" : [ "bang", "int" ],
					"patching_rect" : [ 92.5, 325.0, 29.5, 22.0 ],
					"text" : "t b i"
				}

			}
, 			{
				"box" : 				{
					"id" : "obj-46",
					"maxclass" : "newobj",
					"numinlets" : 2,
					"numoutlets" : 1,
					"outlettype" : [ "int" ],
					"patching_rect" : [ 103.0, 349.0, 29.5, 22.0 ],
					"text" : "- 1"
				}

			}
, 			{
				"box" : 				{
					"id" : "obj-42",
					"maxclass" : "newobj",
					"numinlets" : 2,
					"numoutlets" : 2,
					"outlettype" : [ "bang", "" ],
					"patching_rect" : [ 61.5, 301.0, 50.0, 22.0 ],
					"text" : "select 0"
				}

			}
, 			{
				"box" : 				{
					"id" : "obj-41",
					"maxclass" : "newobj",
					"numinlets" : 2,
					"numoutlets" : 1,
					"outlettype" : [ "int" ],
					"patching_rect" : [ 61.5, 277.0, 29.5, 22.0 ],
					"text" : "int"
				}

			}
, 			{
				"box" : 				{
					"id" : "obj-33",
					"maxclass" : "newobj",
					"numinlets" : 2,
					"numoutlets" : 1,
					"outlettype" : [ "float" ],
					"patching_rect" : [ 689.0, 198.0, 47.0, 22.0 ],
					"text" : "* 1000."
				}

			}
, 			{
				"box" : 				{
					"id" : "obj-31",
					"maxclass" : "newobj",
					"numinlets" : 2,
					"numoutlets" : 1,
					"outlettype" : [ "float" ],
					"patching_rect" : [ 689.0, 174.0, 29.5, 22.0 ],
					"text" : "+ 0."
				}

			}
, 			{
				"box" : 				{
					"format" : 6,
					"id" : "obj-29",
					"maxclass" : "flonum",
					"numinlets" : 1,
					"numoutlets" : 2,
					"outlettype" : [ "", "bang" ],
					"parameter_enable" : 0,
					"patching_rect" : [ 793.0, 126.0, 50.0, 22.0 ],
					"presentation" : 1,
					"presentation_rect" : [ 20.0, 170.0, 50.0, 22.0 ]
				}

			}
, 			{
				"box" : 				{
					"id" : "obj-26",
					"maxclass" : "newobj",
					"numinlets" : 1,
					"numoutlets" : 4,
					"outlettype" : [ "float", "float", "float", "float" ],
					"patching_rect" : [ 793.0, 174.0, 50.5, 22.0 ],
					"text" : "t f f f f"
				}

			}
, 			{
				"box" : 				{
					"id" : "obj-109",
					"maxclass" : "newobj",
					"numinlets" : 1,
					"numoutlets" : 2,
					"outlettype" : [ "bang", "bang" ],
					"patching_rect" : [ 92.5, 373.0, 32.0, 22.0 ],
					"text" : "t b b"
				}

			}
, 			{
				"box" : 				{
					"id" : "obj-108",
					"maxclass" : "newobj",
					"numinlets" : 2,
					"numoutlets" : 1,
					"outlettype" : [ "bang" ],
					"patching_rect" : [ 92.5, 397.0, 37.0, 22.0 ],
					"text" : "delay"
				}

			}
, 			{
				"box" : 				{
					"args" : [ 0, 0.5 ],
					"bgmode" : 0,
					"border" : 0,
					"clickthrough" : 0,
					"enablehscroll" : 0,
					"enablevscroll" : 0,
					"id" : "obj-105",
					"lockeddragscroll" : 0,
					"lockedsize" : 0,
					"maxclass" : "bpatcher",
					"name" : "bpLine.maxpat",
					"numinlets" : 4,
					"numoutlets" : 1,
					"offset" : [ 0.0, 0.0 ],
					"outlettype" : [ "float" ],
					"patching_rect" : [ 254.5, 450.0, 160.0, 140.0 ],
					"viewvisibility" : 1
				}

			}
, 			{
				"box" : 				{
					"args" : [ 0.3, 0.5 ],
					"bgmode" : 0,
					"border" : 0,
					"clickthrough" : 0,
					"enablehscroll" : 0,
					"enablevscroll" : 0,
					"id" : "obj-101",
					"lockeddragscroll" : 0,
					"lockedsize" : 0,
					"maxclass" : "bpatcher",
					"name" : "bpLine.maxpat",
					"numinlets" : 4,
					"numoutlets" : 1,
					"offset" : [ 0.0, 0.0 ],
					"outlettype" : [ "float" ],
					"patching_rect" : [ 92.5, 450.0, 160.0, 140.0 ],
					"viewvisibility" : 1
				}

			}
, 			{
				"box" : 				{
					"fontface" : 1,
					"id" : "obj-24",
					"maxclass" : "comment",
					"numinlets" : 1,
					"numoutlets" : 0,
					"patching_rect" : [ 92.5, 616.0, 50.0, 20.0 ],
					"text" : "Value"
				}

			}
, 			{
				"box" : 				{
					"format" : 6,
					"id" : "obj-23",
					"maxclass" : "flonum",
					"numinlets" : 1,
					"numoutlets" : 2,
					"outlettype" : [ "", "bang" ],
					"parameter_enable" : 0,
					"patching_rect" : [ 92.5, 592.0, 50.0, 22.0 ]
				}

			}
, 			{
				"box" : 				{
					"comment" : "",
					"id" : "obj-21",
					"index" : 0,
					"maxclass" : "outlet",
					"numinlets" : 1,
					"numoutlets" : 0,
					"patching_rect" : [ 92.5, 638.0, 30.0, 30.0 ]
				}

			}
, 			{
				"box" : 				{
					"fontface" : 1,
					"id" : "obj-20",
					"maxclass" : "comment",
					"numinlets" : 1,
					"numoutlets" : 0,
					"patching_rect" : [ 793.0, 152.0, 90.0, 20.0 ],
					"presentation" : 1,
					"presentation_rect" : [ 80.0, 170.0, 100.0, 20.0 ],
					"text" : "Time Between"
				}

			}
, 			{
				"box" : 				{
					"fontface" : 1,
					"id" : "obj-19",
					"maxclass" : "comment",
					"numinlets" : 1,
					"numoutlets" : 0,
					"patching_rect" : [ 689.0, 152.0, 90.0, 20.0 ],
					"presentation" : 1,
					"presentation_rect" : [ 80.0, 140.0, 100.0, 20.0 ],
					"text" : "Time Beat"
				}

			}
, 			{
				"box" : 				{
					"fontface" : 1,
					"id" : "obj-18",
					"maxclass" : "comment",
					"numinlets" : 1,
					"numoutlets" : 0,
					"patching_rect" : [ 582.0, 152.0, 90.0, 20.0 ],
					"presentation" : 1,
					"presentation_rect" : [ 80.0, 110.0, 100.0, 20.0 ],
					"text" : "# Beats"
				}

			}
, 			{
				"box" : 				{
					"fontface" : 1,
					"id" : "obj-17",
					"maxclass" : "comment",
					"numinlets" : 1,
					"numoutlets" : 0,
					"patching_rect" : [ 463.0, 152.0, 90.0, 20.0 ],
					"presentation" : 1,
					"presentation_rect" : [ 80.0, 80.0, 100.0, 20.0 ],
					"text" : "Value End"
				}

			}
, 			{
				"box" : 				{
					"fontface" : 1,
					"id" : "obj-16",
					"maxclass" : "comment",
					"numinlets" : 1,
					"numoutlets" : 0,
					"patching_rect" : [ 343.0, 152.0, 90.0, 20.0 ],
					"presentation" : 1,
					"presentation_rect" : [ 80.0, 50.0, 100.0, 20.0 ],
					"text" : "Value Start"
				}

			}
, 			{
				"box" : 				{
					"id" : "obj-13",
					"maxclass" : "button",
					"numinlets" : 1,
					"numoutlets" : 1,
					"outlettype" : [ "bang" ],
					"parameter_enable" : 0,
					"patching_rect" : [ 61.5, 227.0, 24.0, 24.0 ],
					"presentation" : 1,
					"presentation_rect" : [ 50.0, 20.0, 20.0, 20.0 ]
				}

			}
, 			{
				"box" : 				{
					"format" : 6,
					"id" : "obj-11",
					"maxclass" : "flonum",
					"numinlets" : 1,
					"numoutlets" : 2,
					"outlettype" : [ "", "bang" ],
					"parameter_enable" : 0,
					"patching_rect" : [ 463.0, 126.0, 50.0, 22.0 ],
					"presentation" : 1,
					"presentation_rect" : [ 20.0, 80.0, 50.0, 22.0 ]
				}

			}
, 			{
				"box" : 				{
					"format" : 6,
					"id" : "obj-9",
					"maxclass" : "flonum",
					"numinlets" : 1,
					"numoutlets" : 2,
					"outlettype" : [ "", "bang" ],
					"parameter_enable" : 0,
					"patching_rect" : [ 343.0, 126.0, 50.0, 22.0 ],
					"presentation" : 1,
					"presentation_rect" : [ 20.0, 50.0, 50.0, 22.0 ]
				}

			}
, 			{
				"box" : 				{
					"id" : "obj-3",
					"maxclass" : "number",
					"numinlets" : 1,
					"numoutlets" : 2,
					"outlettype" : [ "", "bang" ],
					"parameter_enable" : 0,
					"patching_rect" : [ 582.0, 126.0, 50.0, 22.0 ],
					"presentation" : 1,
					"presentation_rect" : [ 20.0, 110.0, 50.0, 22.0 ]
				}

			}
, 			{
				"box" : 				{
					"angle" : 270.0,
					"bgcolor" : [ 1.0, 1.0, 1.0, 1.0 ],
					"id" : "obj-1",
					"maxclass" : "panel",
					"mode" : 0,
					"numinlets" : 1,
					"numoutlets" : 0,
					"patching_rect" : [ 1058.0, 29.0, 128.0, 128.0 ],
					"presentation" : 1,
					"presentation_rect" : [ 10.0, 10.0, 180.0, 190.0 ],
					"proportion" : 0.5
				}

			}
 ],
		"lines" : [ 			{
				"patchline" : 				{
					"destination" : [ "obj-8", 0 ],
					"source" : [ "obj-10", 0 ]
				}

			}
, 			{
				"patchline" : 				{
					"destination" : [ "obj-23", 0 ],
					"source" : [ "obj-101", 0 ]
				}

			}
, 			{
				"patchline" : 				{
					"destination" : [ "obj-23", 0 ],
					"midpoints" : [ 264.0, 590.0, 102.0, 590.0 ],
					"source" : [ "obj-105", 0 ]
				}

			}
, 			{
				"patchline" : 				{
					"destination" : [ "obj-53", 0 ],
					"midpoints" : [ 102.0, 423.0, 247.0, 423.0, 247.0, 370.0, 264.0, 370.0 ],
					"source" : [ "obj-108", 0 ]
				}

			}
, 			{
				"patchline" : 				{
					"destination" : [ "obj-101", 0 ],
					"midpoints" : [ 115.0, 441.0, 102.0, 441.0 ],
					"source" : [ "obj-109", 1 ]
				}

			}
, 			{
				"patchline" : 				{
					"destination" : [ "obj-108", 0 ],
					"source" : [ "obj-109", 0 ]
				}

			}
, 			{
				"patchline" : 				{
					"color" : [ 1.0, 0.0, 0.0, 0.15 ],
					"destination" : [ "obj-105", 1 ],
					"midpoints" : [ 472.5, 441.0, 311.0, 441.0 ],
					"source" : [ "obj-11", 0 ]
				}

			}
, 			{
				"patchline" : 				{
					"destination" : [ "obj-62", 0 ],
					"source" : [ "obj-12", 0 ]
				}

			}
, 			{
				"patchline" : 				{
					"destination" : [ "obj-22", 1 ],
					"source" : [ "obj-13", 0 ]
				}

			}
, 			{
				"patchline" : 				{
					"destination" : [ "obj-12", 0 ],
					"source" : [ "obj-14", 0 ]
				}

			}
, 			{
				"patchline" : 				{
					"color" : [ 1.0, 0.0, 0.0, 0.15 ],
					"destination" : [ "obj-31", 1 ],
					"midpoints" : [ 813.0, 251.0, 785.0, 251.0, 785.0, 173.0, 709.0, 173.0 ],
					"source" : [ "obj-15", 1 ]
				}

			}
, 			{
				"patchline" : 				{
					"color" : [ 1.0, 0.0, 0.0, 0.15 ],
					"destination" : [ "obj-31", 0 ],
					"midpoints" : [ 802.5, 251.0, 786.0, 251.0, 786.0, 172.0, 698.5, 172.0 ],
					"source" : [ "obj-15", 0 ]
				}

			}
, 			{
				"patchline" : 				{
					"destination" : [ "obj-28", 0 ],
					"midpoints" : [ 123.5, 117.0, 39.5, 117.0 ],
					"source" : [ "obj-2", 0 ]
				}

			}
, 			{
				"patchline" : 				{
					"destination" : [ "obj-41", 0 ],
					"source" : [ "obj-22", 0 ]
				}

			}
, 			{
				"patchline" : 				{
					"destination" : [ "obj-21", 0 ],
					"source" : [ "obj-23", 0 ]
				}

			}
, 			{
				"patchline" : 				{
					"color" : [ 1.0, 0.0, 0.0, 0.15 ],
					"destination" : [ "obj-101", 2 ],
					"midpoints" : [ 823.5, 441.0, 196.0, 441.0 ],
					"source" : [ "obj-26", 2 ]
				}

			}
, 			{
				"patchline" : 				{
					"color" : [ 1.0, 0.0, 0.0, 0.15 ],
					"destination" : [ "obj-105", 2 ],
					"midpoints" : [ 834.0, 441.0, 358.0, 441.0 ],
					"source" : [ "obj-26", 3 ]
				}

			}
, 			{
				"patchline" : 				{
					"color" : [ 1.0, 0.0, 0.0, 0.15 ],
					"destination" : [ "obj-15", 0 ],
					"midpoints" : [ 802.5, 201.0 ],
					"source" : [ "obj-26", 0 ]
				}

			}
, 			{
				"patchline" : 				{
					"color" : [ 1.0, 0.0, 0.0, 0.15 ],
					"destination" : [ "obj-54", 0 ],
					"source" : [ "obj-26", 1 ]
				}

			}
, 			{
				"patchline" : 				{
					"destination" : [ "obj-40", 0 ],
					"source" : [ "obj-28", 0 ]
				}

			}
, 			{
				"patchline" : 				{
					"destination" : [ "obj-26", 0 ],
					"source" : [ "obj-29", 0 ]
				}

			}
, 			{
				"patchline" : 				{
					"color" : [ 1.0, 0.0, 0.0, 0.15 ],
					"destination" : [ "obj-41", 1 ],
					"midpoints" : [ 591.5, 275.0, 81.5, 275.0 ],
					"source" : [ "obj-3", 0 ]
				}

			}
, 			{
				"patchline" : 				{
					"destination" : [ "obj-33", 0 ],
					"source" : [ "obj-31", 0 ]
				}

			}
, 			{
				"patchline" : 				{
					"color" : [ 1.0, 1.0, 1.0, 0.15 ],
					"destination" : [ "obj-28", 0 ],
					"source" : [ "obj-32", 0 ]
				}

			}
, 			{
				"patchline" : 				{
					"color" : [ 1.0, 0.0, 0.0, 0.15 ],
					"destination" : [ "obj-108", 1 ],
					"midpoints" : [ 698.5, 395.0, 120.0, 395.0 ],
					"source" : [ "obj-33", 0 ]
				}

			}
, 			{
				"patchline" : 				{
					"destination" : [ "obj-32", 0 ],
					"source" : [ "obj-34", 0 ]
				}

			}
, 			{
				"patchline" : 				{
					"destination" : [ "obj-34", 0 ],
					"source" : [ "obj-35", 0 ]
				}

			}
, 			{
				"patchline" : 				{
					"destination" : [ "obj-28", 0 ],
					"midpoints" : [ 71.0, 348.0, 295.0, 348.0, 295.0, 119.0, 39.5, 119.0 ],
					"source" : [ "obj-37", 0 ]
				}

			}
, 			{
				"patchline" : 				{
					"color" : [ 1.0, 0.0, 0.0, 0.15 ],
					"destination" : [ "obj-3", 0 ],
					"midpoints" : [ 39.5, 252.0, 23.0, 252.0, 23.0, 117.0, 591.5, 117.0 ],
					"source" : [ "obj-39", 0 ]
				}

			}
, 			{
				"patchline" : 				{
					"destination" : [ "obj-59", 0 ],
					"source" : [ "obj-4", 0 ]
				}

			}
, 			{
				"patchline" : 				{
					"color" : [ 1.0, 0.0, 0.0, 0.15 ],
					"destination" : [ "obj-22", 0 ],
					"midpoints" : [ 50.0, 199.0, 107.0, 199.0, 107.0, 250.0, 71.0, 250.0 ],
					"source" : [ "obj-40", 1 ]
				}

			}
, 			{
				"patchline" : 				{
					"destination" : [ "obj-43", 0 ],
					"source" : [ "obj-40", 0 ]
				}

			}
, 			{
				"patchline" : 				{
					"destination" : [ "obj-42", 0 ],
					"source" : [ "obj-41", 0 ]
				}

			}
, 			{
				"patchline" : 				{
					"color" : [ 1.0, 0.0, 0.0, 0.15 ],
					"destination" : [ "obj-37", 0 ],
					"midpoints" : [ 71.0, 324.0 ],
					"source" : [ "obj-42", 0 ]
				}

			}
, 			{
				"patchline" : 				{
					"destination" : [ "obj-50", 0 ],
					"source" : [ "obj-42", 1 ]
				}

			}
, 			{
				"patchline" : 				{
					"destination" : [ "obj-13", 0 ],
					"source" : [ "obj-43", 1 ]
				}

			}
, 			{
				"patchline" : 				{
					"destination" : [ "obj-39", 0 ],
					"source" : [ "obj-43", 0 ]
				}

			}
, 			{
				"patchline" : 				{
					"color" : [ 1.0, 0.0, 0.0, 0.15 ],
					"destination" : [ "obj-3", 0 ],
					"midpoints" : [ 112.5, 372.0, 23.0, 372.0, 23.0, 117.0, 591.5, 117.0 ],
					"source" : [ "obj-46", 0 ]
				}

			}
, 			{
				"patchline" : 				{
					"color" : [ 1.0, 0.0, 0.0, 0.15 ],
					"destination" : [ "obj-63", 0 ],
					"source" : [ "obj-49", 0 ]
				}

			}
, 			{
				"patchline" : 				{
					"destination" : [ "obj-4", 0 ],
					"source" : [ "obj-5", 0 ]
				}

			}
, 			{
				"patchline" : 				{
					"destination" : [ "obj-109", 0 ],
					"midpoints" : [ 102.0, 365.0, 102.0, 365.0 ],
					"source" : [ "obj-50", 0 ]
				}

			}
, 			{
				"patchline" : 				{
					"destination" : [ "obj-46", 0 ],
					"source" : [ "obj-50", 1 ]
				}

			}
, 			{
				"patchline" : 				{
					"color" : [ 1.0, 0.0, 0.0, 0.15 ],
					"destination" : [ "obj-101", 3 ],
					"midpoints" : [ 922.5, 442.0, 243.0, 442.0 ],
					"source" : [ "obj-51", 0 ]
				}

			}
, 			{
				"patchline" : 				{
					"color" : [ 1.0, 0.0, 0.0, 0.15 ],
					"destination" : [ "obj-105", 3 ],
					"midpoints" : [ 933.0, 441.0, 405.0, 441.0 ],
					"source" : [ "obj-51", 1 ]
				}

			}
, 			{
				"patchline" : 				{
					"destination" : [ "obj-13", 0 ],
					"midpoints" : [ 264.0, 423.0, 307.0, 423.0, 307.0, 224.0, 71.0, 224.0 ],
					"source" : [ "obj-52", 0 ]
				}

			}
, 			{
				"patchline" : 				{
					"destination" : [ "obj-105", 0 ],
					"midpoints" : [ 277.0, 439.0, 264.0, 439.0 ],
					"source" : [ "obj-53", 1 ]
				}

			}
, 			{
				"patchline" : 				{
					"destination" : [ "obj-52", 0 ],
					"source" : [ "obj-53", 0 ]
				}

			}
, 			{
				"patchline" : 				{
					"color" : [ 1.0, 0.0, 0.0, 0.15 ],
					"destination" : [ "obj-52", 1 ],
					"midpoints" : [ 813.0, 393.0, 282.0, 393.0 ],
					"source" : [ "obj-54", 0 ]
				}

			}
, 			{
				"patchline" : 				{
					"destination" : [ "obj-56", 0 ],
					"source" : [ "obj-55", 0 ]
				}

			}
, 			{
				"patchline" : 				{
					"destination" : [ "obj-58", 0 ],
					"source" : [ "obj-56", 0 ]
				}

			}
, 			{
				"patchline" : 				{
					"color" : [ 0.701961, 0.701961, 0.701961, 0.15 ],
					"destination" : [ "obj-9", 0 ],
					"source" : [ "obj-58", 0 ]
				}

			}
, 			{
				"patchline" : 				{
					"color" : [ 0.701961, 0.701961, 0.701961, 0.15 ],
					"destination" : [ "obj-11", 0 ],
					"source" : [ "obj-59", 0 ]
				}

			}
, 			{
				"patchline" : 				{
					"destination" : [ "obj-60", 0 ],
					"source" : [ "obj-6", 0 ]
				}

			}
, 			{
				"patchline" : 				{
					"color" : [ 0.701961, 0.701961, 0.701961, 0.15 ],
					"destination" : [ "obj-3", 0 ],
					"source" : [ "obj-60", 0 ]
				}

			}
, 			{
				"patchline" : 				{
					"color" : [ 1.0, 1.0, 1.0, 0.15 ],
					"destination" : [ "obj-64", 0 ],
					"source" : [ "obj-61", 0 ]
				}

			}
, 			{
				"patchline" : 				{
					"color" : [ 0.701961, 0.701961, 0.701961, 0.15 ],
					"destination" : [ "obj-29", 0 ],
					"source" : [ "obj-62", 0 ]
				}

			}
, 			{
				"patchline" : 				{
					"color" : [ 1.0, 0.0, 0.0, 0.15 ],
					"destination" : [ "obj-51", 0 ],
					"source" : [ "obj-63", 0 ]
				}

			}
, 			{
				"patchline" : 				{
					"destination" : [ "obj-31", 0 ],
					"source" : [ "obj-64", 0 ]
				}

			}
, 			{
				"patchline" : 				{
					"destination" : [ "obj-6", 0 ],
					"source" : [ "obj-7", 0 ]
				}

			}
, 			{
				"patchline" : 				{
					"destination" : [ "obj-61", 0 ],
					"source" : [ "obj-8", 0 ]
				}

			}
, 			{
				"patchline" : 				{
					"color" : [ 1.0, 0.0, 0.0, 0.15 ],
					"destination" : [ "obj-101", 1 ],
					"midpoints" : [ 352.5, 440.0, 149.0, 440.0 ],
					"source" : [ "obj-9", 0 ]
				}

			}
 ],
		"dependency_cache" : [ 			{
				"name" : "bpLine.maxpat",
				"bootpath" : "~/OneDrive/Desktop/Education/University of British Columbia/ubc Classes/MUSC 419/Project 3/Kicass2021/patchers",
				"patcherrelativepath" : ".",
				"type" : "JSON",
				"implicit" : 1
			}
 ],
		"autosave" : 0,
		"styles" : [ 			{
				"name" : "AudioStatus_Menu",
				"default" : 				{
					"bgfillcolor" : 					{
						"type" : "color",
						"color" : [ 0.294118, 0.313726, 0.337255, 1 ],
						"color1" : [ 0.454902, 0.462745, 0.482353, 0.0 ],
						"color2" : [ 0.290196, 0.309804, 0.301961, 1.0 ],
						"angle" : 270.0,
						"proportion" : 0.39,
						"autogradient" : 0
					}

				}
,
				"parentstyle" : "",
				"multi" : 0
			}
, 			{
				"name" : "PAt_style0",
				"default" : 				{
					"fontname" : [ "Arial" ],
					"bgcolor" : [ 0.901961, 0.901961, 0.901961, 1.0 ],
					"clearcolor" : [ 1.0, 0.947758, 0.687073, 1.0 ],
					"textcolor_inverse" : [ 0.0, 0.0, 0.0, 1.0 ],
					"bgfillcolor" : 					{
						"type" : "gradient",
						"color" : [ 0.290196, 0.309804, 0.301961, 1.0 ],
						"color1" : [ 0.862745, 0.870588, 0.878431, 1.0 ],
						"color2" : [ 0.862745, 0.870588, 0.878431, 1.0 ],
						"angle" : 270.0,
						"proportion" : 0.39,
						"autogradient" : 0
					}
,
					"fontsize" : [ 12.0 ],
					"color" : [ 0.952941, 0.564706, 0.098039, 1.0 ],
					"accentcolor" : [ 0.65098, 0.666667, 0.662745, 1.0 ]
				}
,
				"parentstyle" : "",
				"multi" : 0
			}
, 			{
				"name" : "buttonBlue",
				"default" : 				{
					"bgcolor" : [ 0.317647, 0.654902, 0.976471, 1.0 ]
				}
,
				"parentstyle" : "",
				"multi" : 0
			}
, 			{
				"name" : "buttonPurple",
				"default" : 				{
					"bgcolor" : [ 0.372549, 0.196078, 0.486275, 1.0 ]
				}
,
				"parentstyle" : "",
				"multi" : 0
			}
, 			{
				"name" : "hamel010Object",
				"default" : 				{
					"selectioncolor" : [ 0.941176470588235, 0.941176470588235, 0.796078431372549, 1.0 ],
					"locked_bgcolor" : [ 0.941176470588235, 0.905882352941176, 0.764705882352941, 1.0 ],
					"elementcolor" : [ 0.407843137254902, 0.607843137254902, 0.43921568627451, 1.0 ],
					"bgcolor" : [ 0.027450980392157, 0.07843137254902, 0.733333333333333, 1.0 ],
					"editing_bgcolor" : [ 0.866666666666667, 0.819607843137255, 0.819607843137255, 1.0 ],
					"fontface" : [ 0 ],
					"stripecolor" : [ 0.443137254901961, 0.627450980392157, 0.341176470588235, 1.0 ],
					"patchlinecolor" : [ 0.031372549019608, 0.698039215686274, 0.533333333333333, 1.0 ],
					"bgfillcolor" : 					{
						"angle" : 270.0,
						"autogradient" : 0.0,
						"color" : [ 0.2, 0.2, 0.2, 1.0 ],
						"color1" : [ 0.807843137254902, 0.011764705882353, 0.988235294117647, 1.0 ],
						"color2" : [ 0.196078431372549, 0.196078431372549, 0.196078431372549, 1.0 ],
						"proportion" : 0.5,
						"type" : "gradient"
					}
,
					"fontsize" : [ 16.0 ],
					"color" : [ 0.976470588235294, 0.788235294117647, 0.572549019607843, 1.0 ],
					"accentcolor" : [ 0.745098039215686, 0.015686274509804, 0.015686274509804, 1.0 ]
				}
,
				"parentstyle" : "",
				"multi" : 0
			}
, 			{
				"name" : "ksliderWhite",
				"default" : 				{
					"color" : [ 1, 1, 1, 1 ]
				}
,
				"parentstyle" : "",
				"multi" : 0
			}
, 			{
				"name" : "multisliderBlue&Yellow",
				"default" : 				{
					"bgcolor" : [ 0.317647, 0.654902, 0.976471, 0.79 ],
					"color" : [ 0.960784, 0.867826, 0.084811, 1.0 ]
				}
,
				"parentstyle" : "",
				"multi" : 0
			}
, 			{
				"name" : "newobjBlue-1",
				"default" : 				{
					"accentcolor" : [ 0.317647, 0.654902, 0.976471, 1 ]
				}
,
				"parentstyle" : "",
				"multi" : 0
			}
, 			{
				"name" : "newobjBlue-2",
				"default" : 				{
					"accentcolor" : [ 0.317647, 0.654902, 0.976471, 1.0 ]
				}
,
				"parentstyle" : "",
				"multi" : 0
			}
, 			{
				"name" : "newobjBlue-3",
				"default" : 				{
					"accentcolor" : [ 0.317647, 0.654902, 0.976471, 1.0 ]
				}
,
				"parentstyle" : "",
				"multi" : 0
			}
, 			{
				"name" : "newobjBlue-4",
				"default" : 				{
					"accentcolor" : [ 0.317647, 0.654902, 0.976471, 1.0 ]
				}
,
				"parentstyle" : "",
				"multi" : 0
			}
, 			{
				"name" : "newobjBlue-5",
				"default" : 				{
					"accentcolor" : [ 0.317647, 0.654902, 0.976471, 1.0 ]
				}
,
				"parentstyle" : "",
				"multi" : 0
			}
, 			{
				"name" : "newobjBrown-1",
				"default" : 				{
					"accentcolor" : [ 0.654902, 0.572549, 0.376471, 1.0 ]
				}
,
				"parentstyle" : "",
				"multi" : 0
			}
, 			{
				"name" : "newobjBrown-2",
				"default" : 				{
					"accentcolor" : [ 0.654902, 0.572549, 0.376471, 1.0 ]
				}
,
				"parentstyle" : "",
				"multi" : 0
			}
, 			{
				"name" : "newobjBrown-3",
				"default" : 				{
					"accentcolor" : [ 0.654902, 0.572549, 0.376471, 1.0 ]
				}
,
				"parentstyle" : "",
				"multi" : 0
			}
, 			{
				"name" : "newobjBrown-4",
				"default" : 				{
					"accentcolor" : [ 0.654902, 0.572549, 0.376471, 1.0 ]
				}
,
				"parentstyle" : "",
				"multi" : 0
			}
, 			{
				"name" : "newobjCyan-1",
				"default" : 				{
					"accentcolor" : [ 0.029546, 0.773327, 0.821113, 1.0 ]
				}
,
				"parentstyle" : "",
				"multi" : 0
			}
, 			{
				"name" : "newobjGreen-1",
				"default" : 				{
					"accentcolor" : [ 0, 0.533333, 0.168627, 1 ]
				}
,
				"parentstyle" : "",
				"multi" : 0
			}
, 			{
				"name" : "newobjGreen-2",
				"default" : 				{
					"accentcolor" : [ 0.0, 0.533333, 0.168627, 1.0 ]
				}
,
				"parentstyle" : "",
				"multi" : 0
			}
, 			{
				"name" : "newobjGreen-3",
				"default" : 				{
					"accentcolor" : [ 0.0, 0.533333, 0.168627, 1.0 ]
				}
,
				"parentstyle" : "",
				"multi" : 0
			}
, 			{
				"name" : "newobjGreen-4",
				"default" : 				{
					"accentcolor" : [ 0.0, 0.533333, 0.168627, 1.0 ]
				}
,
				"parentstyle" : "",
				"multi" : 0
			}
, 			{
				"name" : "newobjGreen-5",
				"default" : 				{
					"accentcolor" : [ 0.0, 0.533333, 0.168627, 1.0 ]
				}
,
				"parentstyle" : "",
				"multi" : 0
			}
, 			{
				"name" : "newobjMagenta-1",
				"default" : 				{
					"accentcolor" : [ 0.840663, 0.060168, 0.769195, 1.0 ]
				}
,
				"parentstyle" : "",
				"multi" : 0
			}
, 			{
				"name" : "newobjYellow-1",
				"default" : 				{
					"fontsize" : [ 12.059008 ],
					"accentcolor" : [ 0.82517, 0.78181, 0.059545, 1.0 ]
				}
,
				"parentstyle" : "",
				"multi" : 0
			}
, 			{
				"name" : "newobjYellow-2",
				"default" : 				{
					"fontsize" : [ 12.059008 ],
					"accentcolor" : [ 0.82517, 0.78181, 0.059545, 1.0 ]
				}
,
				"parentstyle" : "",
				"multi" : 0
			}
, 			{
				"name" : "newobjYellow-3",
				"default" : 				{
					"fontsize" : [ 12.059008 ],
					"accentcolor" : [ 0.82517, 0.78181, 0.059545, 1.0 ]
				}
,
				"parentstyle" : "",
				"multi" : 0
			}
, 			{
				"name" : "newobjYellow-4",
				"default" : 				{
					"fontsize" : [ 12.059008 ],
					"accentcolor" : [ 0.82517, 0.78181, 0.059545, 1.0 ]
				}
,
				"parentstyle" : "",
				"multi" : 0
			}
, 			{
				"name" : "newobjYellow-5",
				"default" : 				{
					"fontsize" : [ 12.059008 ],
					"accentcolor" : [ 0.82517, 0.78181, 0.059545, 1.0 ]
				}
,
				"parentstyle" : "",
				"multi" : 0
			}
, 			{
				"name" : "newobjYellow-6",
				"default" : 				{
					"fontsize" : [ 12.059008 ],
					"accentcolor" : [ 0.82517, 0.78181, 0.059545, 1.0 ]
				}
,
				"parentstyle" : "",
				"multi" : 0
			}
, 			{
				"name" : "numberB-1",
				"default" : 				{
					"accentcolor" : [ 0.011765, 0.396078, 0.752941, 1.0 ]
				}
,
				"parentstyle" : "",
				"multi" : 0
			}
, 			{
				"name" : "numberG-1",
				"default" : 				{
					"accentcolor" : [ 0.0, 0.533333, 0.168627, 1.0 ]
				}
,
				"parentstyle" : "",
				"multi" : 0
			}
, 			{
				"name" : "numberGold-1",
				"default" : 				{
					"accentcolor" : [ 0.764706, 0.592157, 0.101961, 1 ]
				}
,
				"parentstyle" : "",
				"multi" : 0
			}
, 			{
				"name" : "numberGold-2",
				"default" : 				{
					"accentcolor" : [ 0.764706, 0.592157, 0.101961, 1.0 ]
				}
,
				"parentstyle" : "",
				"multi" : 0
			}
, 			{
				"name" : "numberGold-3",
				"default" : 				{
					"accentcolor" : [ 0.764706, 0.592157, 0.101961, 1.0 ]
				}
,
				"parentstyle" : "",
				"multi" : 0
			}
, 			{
				"name" : "numberGold-4",
				"default" : 				{
					"accentcolor" : [ 0.764706, 0.592157, 0.101961, 1.0 ]
				}
,
				"parentstyle" : "",
				"multi" : 0
			}
, 			{
				"name" : "numberGold-5",
				"default" : 				{
					"accentcolor" : [ 0.764706, 0.592157, 0.101961, 1.0 ]
				}
,
				"parentstyle" : "",
				"multi" : 0
			}
, 			{
				"name" : "panelViolet",
				"default" : 				{
					"bgfillcolor" : 					{
						"type" : "color",
						"color" : [ 0.372549, 0.196078, 0.486275, 0.2 ],
						"color1" : [ 0.454902, 0.462745, 0.482353, 1.0 ],
						"color2" : [ 0.290196, 0.309804, 0.301961, 1.0 ],
						"angle" : 270.0,
						"proportion" : 0.39,
						"autogradient" : 0
					}

				}
,
				"parentstyle" : "",
				"multi" : 0
			}
, 			{
				"name" : "rsliderGold",
				"default" : 				{
					"bgcolor" : [ 0.764706, 0.592157, 0.101961, 1.0 ],
					"color" : [ 0.646639, 0.821777, 0.854593, 1.0 ]
				}
,
				"parentstyle" : "",
				"multi" : 0
			}
, 			{
				"name" : "texteditGold",
				"default" : 				{
					"bgcolor" : [ 0.764706, 0.592157, 0.101961, 0.68 ],
					"textcolor_inverse" : [ 0.0, 0.0, 0.0, 1.0 ]
				}
,
				"parentstyle" : "",
				"multi" : 0
			}
 ]
	}

}
