{
	"patcher" : 	{
		"fileversion" : 1,
		"appversion" : 		{
			"major" : 8,
			"minor" : 2,
			"revision" : 1,
			"architecture" : "x64",
			"modernui" : 1
		}
,
		"classnamespace" : "box",
		"rect" : [ 34.0, 77.0, 813.0, 690.0 ],
		"bglocked" : 0,
		"openinpresentation" : 1,
		"default_fontsize" : 12.0,
		"default_fontface" : 0,
		"default_fontname" : "Arial",
		"gridonopen" : 1,
		"gridsize" : [ 15.0, 15.0 ],
		"gridsnaponopen" : 1,
		"objectsnaponopen" : 1,
		"statusbarvisible" : 2,
		"toolbarvisible" : 1,
		"lefttoolbarpinned" : 0,
		"toptoolbarpinned" : 0,
		"righttoolbarpinned" : 0,
		"bottomtoolbarpinned" : 0,
		"toolbars_unpinned_last_save" : 0,
		"tallnewobj" : 0,
		"boxanimatetime" : 200,
		"enablehscroll" : 1,
		"enablevscroll" : 1,
		"devicewidth" : 0.0,
		"description" : "",
		"digest" : "",
		"tags" : "",
		"style" : "",
		"subpatcher_template" : "",
		"assistshowspatchername" : 0,
		"boxes" : [ 			{
				"box" : 				{
					"id" : "obj-5",
					"maxclass" : "message",
					"numinlets" : 2,
					"numoutlets" : 1,
					"outlettype" : [ "" ],
					"patching_rect" : [ 106.0, 172.0, 41.0, 22.0 ],
					"text" : "pause"
				}

			}
, 			{
				"box" : 				{
					"fontface" : 1,
					"id" : "obj-1",
					"maxclass" : "comment",
					"numinlets" : 1,
					"numoutlets" : 0,
					"patching_rect" : [ 106.0, 150.0, 52.0, 20.0 ],
					"presentation" : 1,
					"presentation_rect" : [ 88.0, 110.0, 52.0, 20.0 ],
					"text" : "Stop"
				}

			}
, 			{
				"box" : 				{
					"bgcolor" : [ 0.501960784313725, 1.0, 0.501960784313725, 1.0 ],
					"blinkcolor" : [ 0.2, 1.0, 0.2, 1.0 ],
					"id" : "obj-3",
					"maxclass" : "button",
					"numinlets" : 1,
					"numoutlets" : 1,
					"outlettype" : [ "bang" ],
					"outlinecolor" : [ 0.8, 1.0, 0.8, 1.0 ],
					"parameter_enable" : 0,
					"patching_rect" : [ 106.0, 124.0, 24.0, 24.0 ],
					"presentation" : 1,
					"presentation_rect" : [ 20.0, 110.0, 30.0, 30.0 ]
				}

			}
, 			{
				"box" : 				{
					"id" : "obj-83",
					"maxclass" : "comment",
					"numinlets" : 1,
					"numoutlets" : 0,
					"patching_rect" : [ 227.0, 578.0, 105.0, 20.0 ],
					"text" : "#3 : Time"
				}

			}
, 			{
				"box" : 				{
					"id" : "obj-82",
					"maxclass" : "comment",
					"numinlets" : 1,
					"numoutlets" : 0,
					"patching_rect" : [ 227.0, 556.0, 105.0, 20.0 ],
					"text" : "#2 : Value"
				}

			}
, 			{
				"box" : 				{
					"id" : "obj-26",
					"maxclass" : "comment",
					"numinlets" : 1,
					"numoutlets" : 0,
					"patching_rect" : [ 227.0, 534.0, 105.0, 20.0 ],
					"text" : "#1 : Trigger"
				}

			}
, 			{
				"box" : 				{
					"fontface" : 1,
					"id" : "obj-15",
					"maxclass" : "comment",
					"numinlets" : 1,
					"numoutlets" : 0,
					"patching_rect" : [ 32.0, 459.0, 47.0, 20.0 ],
					"text" : "Play"
				}

			}
, 			{
				"box" : 				{
					"comment" : "",
					"id" : "obj-14",
					"index" : 0,
					"maxclass" : "outlet",
					"numinlets" : 1,
					"numoutlets" : 0,
					"patching_rect" : [ 32.0, 427.0, 30.0, 30.0 ]
				}

			}
, 			{
				"box" : 				{
					"angle" : 270.0,
					"bgcolor" : [ 1.0, 1.0, 1.0, 1.0 ],
					"bordercolor" : [ 0.0, 0.0, 0.0, 1.0 ],
					"id" : "obj-8",
					"maxclass" : "panel",
					"mode" : 0,
					"numinlets" : 1,
					"numoutlets" : 0,
					"patching_rect" : [ 47.0, 534.0, 128.0, 128.0 ],
					"presentation" : 1,
					"presentation_rect" : [ 20.0, 20.0, 120.0, 40.0 ],
					"proportion" : 0.5,
					"rounded" : 0
				}

			}
, 			{
				"box" : 				{
					"id" : "obj-25",
					"maxclass" : "message",
					"numinlets" : 2,
					"numoutlets" : 1,
					"outlettype" : [ "" ],
					"patching_rect" : [ 32.0, 172.0, 29.5, 22.0 ],
					"text" : "1"
				}

			}
, 			{
				"box" : 				{
					"fontface" : 1,
					"id" : "obj-10",
					"maxclass" : "comment",
					"numinlets" : 1,
					"numoutlets" : 0,
					"patching_rect" : [ 32.0, 150.0, 52.0, 20.0 ],
					"presentation" : 1,
					"presentation_rect" : [ 88.0, 70.0, 52.0, 20.0 ],
					"text" : "Play"
				}

			}
, 			{
				"box" : 				{
					"bgcolor" : [ 0.501960784313725, 1.0, 0.501960784313725, 1.0 ],
					"blinkcolor" : [ 0.2, 1.0, 0.2, 1.0 ],
					"id" : "obj-2",
					"maxclass" : "button",
					"numinlets" : 1,
					"numoutlets" : 1,
					"outlettype" : [ "bang" ],
					"outlinecolor" : [ 0.8, 1.0, 0.8, 1.0 ],
					"parameter_enable" : 0,
					"patching_rect" : [ 32.0, 124.0, 24.0, 24.0 ],
					"presentation" : 1,
					"presentation_rect" : [ 20.0, 70.0, 30.0, 30.0 ]
				}

			}
, 			{
				"box" : 				{
					"angle" : 270.0,
					"bgcolor" : [ 0.8, 1.0, 0.8, 1.0 ],
					"border" : 1,
					"bordercolor" : [ 0.0, 0.0, 0.0, 1.0 ],
					"id" : "obj-7",
					"maxclass" : "panel",
					"mode" : 0,
					"numinlets" : 1,
					"numoutlets" : 0,
					"patching_rect" : [ 32.0, 534.0, 128.0, 128.0 ],
					"presentation" : 1,
					"presentation_rect" : [ 10.0, 10.0, 140.0, 140.0 ],
					"proportion" : 0.5,
					"rounded" : 0
				}

			}
 ],
		"lines" : [ 			{
				"patchline" : 				{
					"destination" : [ "obj-25", 0 ],
					"source" : [ "obj-2", 0 ]
				}

			}
, 			{
				"patchline" : 				{
					"destination" : [ "obj-14", 0 ],
					"source" : [ "obj-25", 0 ]
				}

			}
, 			{
				"patchline" : 				{
					"destination" : [ "obj-5", 0 ],
					"source" : [ "obj-3", 0 ]
				}

			}
, 			{
				"patchline" : 				{
					"destination" : [ "obj-14", 0 ],
					"midpoints" : [ 115.5, 419.0, 41.5, 419.0 ],
					"source" : [ "obj-5", 0 ]
				}

			}
 ],
		"dependency_cache" : [  ],
		"autosave" : 0,
		"styles" : [ 			{
				"name" : "hamel010Object",
				"default" : 				{
					"fontsize" : [ 16.0 ],
					"selectioncolor" : [ 0.941176470588235, 0.941176470588235, 0.796078431372549, 1.0 ],
					"bgfillcolor" : 					{
						"angle" : 270.0,
						"autogradient" : 0.0,
						"color" : [ 0.2, 0.2, 0.2, 1.0 ],
						"color1" : [ 0.807843137254902, 0.011764705882353, 0.988235294117647, 1.0 ],
						"color2" : [ 0.196078431372549, 0.196078431372549, 0.196078431372549, 1.0 ],
						"proportion" : 0.5,
						"type" : "gradient"
					}
,
					"locked_bgcolor" : [ 0.941176470588235, 0.905882352941176, 0.764705882352941, 1.0 ],
					"bgcolor" : [ 0.027450980392157, 0.07843137254902, 0.733333333333333, 1.0 ],
					"accentcolor" : [ 0.745098039215686, 0.015686274509804, 0.015686274509804, 1.0 ],
					"editing_bgcolor" : [ 0.866666666666667, 0.819607843137255, 0.819607843137255, 1.0 ],
					"stripecolor" : [ 0.443137254901961, 0.627450980392157, 0.341176470588235, 1.0 ],
					"fontface" : [ 0 ],
					"elementcolor" : [ 0.407843137254902, 0.607843137254902, 0.43921568627451, 1.0 ],
					"patchlinecolor" : [ 0.031372549019608, 0.698039215686274, 0.533333333333333, 1.0 ],
					"color" : [ 0.976470588235294, 0.788235294117647, 0.572549019607843, 1.0 ]
				}
,
				"parentstyle" : "",
				"multi" : 0
			}
, 			{
				"name" : "ksliderWhite",
				"default" : 				{
					"color" : [ 1, 1, 1, 1 ]
				}
,
				"parentstyle" : "",
				"multi" : 0
			}
, 			{
				"name" : "newobjBlue-1",
				"default" : 				{
					"accentcolor" : [ 0.317647, 0.654902, 0.976471, 1 ]
				}
,
				"parentstyle" : "",
				"multi" : 0
			}
, 			{
				"name" : "newobjGreen-1",
				"default" : 				{
					"accentcolor" : [ 0, 0.533333, 0.168627, 1 ]
				}
,
				"parentstyle" : "",
				"multi" : 0
			}
, 			{
				"name" : "numberGold-1",
				"default" : 				{
					"accentcolor" : [ 0.764706, 0.592157, 0.101961, 1 ]
				}
,
				"parentstyle" : "",
				"multi" : 0
			}
 ]
	}

}
